<mxfile host="app.diagrams.net" modified="2024-01-15T15:24:43.243Z" agent="Mozilla/5.0 (Windows NT 10.0; Win64; x64) AppleWebKit/537.36 (KHTML, like Gecko) Chrome/120.0.0.0 Safari/537.36 Edg/120.0.0.0" etag="xrY3P5PX3znQgY4XBaTE" version="22.1.18" type="github">
  <diagram name="第 1 页" id="pkehig5ogXNGjQ23xGKj">
    <mxGraphModel dx="472" dy="824" grid="1" gridSize="10" guides="1" tooltips="1" connect="1" arrows="1" fold="1" page="1" pageScale="1" pageWidth="827" pageHeight="1169" math="0" shadow="0">
      <root>
        <mxCell id="0" />
        <mxCell id="1" parent="0" />
        <mxCell id="9M9H_-uFt_yQbdHNnimK-3" value="" style="edgeStyle=orthogonalEdgeStyle;rounded=0;orthogonalLoop=1;jettySize=auto;html=1;" edge="1" parent="1" source="9M9H_-uFt_yQbdHNnimK-1" target="9M9H_-uFt_yQbdHNnimK-2">
          <mxGeometry relative="1" as="geometry" />
        </mxCell>
        <mxCell id="9M9H_-uFt_yQbdHNnimK-4" value="" style="edgeStyle=orthogonalEdgeStyle;rounded=0;orthogonalLoop=1;jettySize=auto;html=1;" edge="1" parent="1" source="9M9H_-uFt_yQbdHNnimK-1" target="9M9H_-uFt_yQbdHNnimK-2">
          <mxGeometry relative="1" as="geometry" />
        </mxCell>
        <mxCell id="9M9H_-uFt_yQbdHNnimK-5" value="" style="edgeStyle=orthogonalEdgeStyle;rounded=0;orthogonalLoop=1;jettySize=auto;html=1;" edge="1" parent="1" source="9M9H_-uFt_yQbdHNnimK-1" target="9M9H_-uFt_yQbdHNnimK-2">
          <mxGeometry relative="1" as="geometry" />
        </mxCell>
        <mxCell id="9M9H_-uFt_yQbdHNnimK-6" value="" style="edgeStyle=orthogonalEdgeStyle;rounded=0;orthogonalLoop=1;jettySize=auto;html=1;" edge="1" parent="1" source="9M9H_-uFt_yQbdHNnimK-1" target="9M9H_-uFt_yQbdHNnimK-2">
          <mxGeometry relative="1" as="geometry" />
        </mxCell>
        <mxCell id="9M9H_-uFt_yQbdHNnimK-1" value="GlobalManager" style="rounded=0;whiteSpace=wrap;html=1;" vertex="1" parent="1">
          <mxGeometry x="160" y="80" width="120" height="60" as="geometry" />
        </mxCell>
        <mxCell id="9M9H_-uFt_yQbdHNnimK-2" value="MemoryMgr" style="whiteSpace=wrap;html=1;rounded=0;" vertex="1" parent="1">
          <mxGeometry x="90" y="200" width="120" height="60" as="geometry" />
        </mxCell>
        <mxCell id="9M9H_-uFt_yQbdHNnimK-7" value="Others" style="whiteSpace=wrap;html=1;rounded=0;" vertex="1" parent="1">
          <mxGeometry x="240" y="200" width="120" height="60" as="geometry" />
        </mxCell>
        <mxCell id="9M9H_-uFt_yQbdHNnimK-8" style="edgeStyle=orthogonalEdgeStyle;rounded=0;orthogonalLoop=1;jettySize=auto;html=1;entryX=0.5;entryY=0;entryDx=0;entryDy=0;" edge="1" parent="1" source="9M9H_-uFt_yQbdHNnimK-1" target="9M9H_-uFt_yQbdHNnimK-7">
          <mxGeometry relative="1" as="geometry" />
        </mxCell>
        <mxCell id="9M9H_-uFt_yQbdHNnimK-10" value="开始" style="strokeWidth=2;html=1;shape=mxgraph.flowchart.start_1;whiteSpace=wrap;" vertex="1" parent="1">
          <mxGeometry x="190" y="360" width="100" height="60" as="geometry" />
        </mxCell>
        <mxCell id="9M9H_-uFt_yQbdHNnimK-15" style="edgeStyle=orthogonalEdgeStyle;rounded=0;orthogonalLoop=1;jettySize=auto;html=1;entryX=0.5;entryY=0;entryDx=0;entryDy=0;" edge="1" parent="1" source="9M9H_-uFt_yQbdHNnimK-11" target="9M9H_-uFt_yQbdHNnimK-13">
          <mxGeometry relative="1" as="geometry" />
        </mxCell>
        <mxCell id="9M9H_-uFt_yQbdHNnimK-16" value="是" style="edgeLabel;html=1;align=center;verticalAlign=middle;resizable=0;points=[];" vertex="1" connectable="0" parent="9M9H_-uFt_yQbdHNnimK-15">
          <mxGeometry x="-0.664" y="-2" relative="1" as="geometry">
            <mxPoint x="-9" y="2" as="offset" />
          </mxGeometry>
        </mxCell>
        <mxCell id="9M9H_-uFt_yQbdHNnimK-11" value="全局初始化" style="strokeWidth=2;html=1;shape=mxgraph.flowchart.decision;whiteSpace=wrap;" vertex="1" parent="1">
          <mxGeometry x="190" y="450" width="100" height="60" as="geometry" />
        </mxCell>
        <mxCell id="9M9H_-uFt_yQbdHNnimK-12" style="edgeStyle=orthogonalEdgeStyle;rounded=0;orthogonalLoop=1;jettySize=auto;html=1;entryX=0.5;entryY=0;entryDx=0;entryDy=0;entryPerimeter=0;" edge="1" parent="1" source="9M9H_-uFt_yQbdHNnimK-10" target="9M9H_-uFt_yQbdHNnimK-11">
          <mxGeometry relative="1" as="geometry" />
        </mxCell>
        <mxCell id="9M9H_-uFt_yQbdHNnimK-17" style="edgeStyle=orthogonalEdgeStyle;rounded=0;orthogonalLoop=1;jettySize=auto;html=1;entryX=0.5;entryY=0;entryDx=0;entryDy=0;" edge="1" parent="1" source="9M9H_-uFt_yQbdHNnimK-13" target="9M9H_-uFt_yQbdHNnimK-14">
          <mxGeometry relative="1" as="geometry" />
        </mxCell>
        <mxCell id="9M9H_-uFt_yQbdHNnimK-13" value="version校验&lt;br&gt;处理segment" style="rounded=1;whiteSpace=wrap;html=1;absoluteArcSize=1;arcSize=14;strokeWidth=2;" vertex="1" parent="1">
          <mxGeometry x="60" y="525" width="100" height="60" as="geometry" />
        </mxCell>
        <mxCell id="9M9H_-uFt_yQbdHNnimK-14" value="处理memory" style="rounded=1;whiteSpace=wrap;html=1;absoluteArcSize=1;arcSize=14;strokeWidth=2;" vertex="1" parent="1">
          <mxGeometry x="60" y="620" width="100" height="60" as="geometry" />
        </mxCell>
      </root>
    </mxGraphModel>
  </diagram>
</mxfile>
